<svg width="14" height="12" viewBox="0 0 14 12" fill="none" xmlns="http://www.w3.org/2000/svg">
    <path d="M4.40607 11.6852C9.68274 11.6852 12.5698 7.31465 12.5698 3.52155C12.5698 3.39719 12.5698 3.27278 12.5609 3.14843C13.1205 2.73979 13.6091 2.23345 13.9999 1.66495C13.4847 1.88701 12.9251 2.04694 12.3476 2.1091C12.9428 1.75379 13.3958 1.19415 13.6091 0.527893C13.0583 0.856578 12.4365 1.09642 11.788 1.22078C11.2639 0.66114 10.5177 0.314697 9.69155 0.314697C8.10147 0.314697 6.82228 1.60276 6.82228 3.18397C6.82228 3.40606 6.84893 3.62812 6.89333 3.84131C4.51267 3.71693 2.38955 2.5799 0.977136 0.838793C0.728373 1.26518 0.586287 1.75377 0.586287 2.28675C0.586287 3.28167 1.0926 4.1611 1.86543 4.67634C1.39466 4.6586 0.95046 4.52536 0.568503 4.31216V4.34768C0.568503 5.74234 1.55456 6.89713 2.86927 7.16365C2.62945 7.22581 2.37182 7.26135 2.11422 7.26135C1.92765 7.26135 1.75 7.2436 1.57232 7.21695C1.93654 8.35401 2.99365 9.18014 4.25507 9.20682C3.26901 9.97965 2.03422 10.4327 0.692885 10.4327C0.45304 10.4327 0.230979 10.4238 0 10.3972C1.27031 11.2144 2.78043 11.6852 4.40607 11.6852Z" fill="#A7ACC0"/>
</svg>
