<svg width="100" height="32" viewBox="0 0 100 32" fill="none" xmlns="http://www.w3.org/2000/svg">
    <path fill-rule="evenodd" clip-rule="evenodd" d="M46.9687 20.4888V19.1488H44.6257C43.025 19.1488 42.5219 19.8063 42.5219 20.6825C42.5219 21.6338 43.2453 22.265 44.4493 22.265C45.5894 22.265 46.5769 21.6813 46.9687 20.4888ZM50.3866 17.1538V24.625H47.1838V23C46.5505 24.1925 45.3215 24.825 43.5931 24.825C40.8321 24.825 39.1888 23.1213 39.1888 20.8563C39.1888 18.545 40.6557 16.9375 44.2502 16.9375H46.966C46.966 15.3125 46.0899 14.3588 44.2502 14.3588C42.9986 14.3588 41.7082 14.82 40.8534 15.575L39.6269 12.9225C40.926 11.895 42.8284 11.335 44.7132 11.335C48.3065 11.335 50.3866 13.1863 50.3866 17.1538ZM60.3328 24C59.6306 24.56 58.6019 24.8275 57.5505 24.8275C54.7671 24.8275 53.1463 23.245 53.1463 20.13V14.75H51.329V11.8213H53.1463V10.375L56.5706 8.63379V11.8213H59.4992V14.75H56.5706V20.075C56.5706 21.2 57.1175 21.8025 58.0361 21.8025C58.538 21.8059 59.0252 21.6334 59.4129 21.315L60.3328 24ZM68.5242 20.5V19.1488H66.1813C64.5805 19.1488 64.0761 19.8063 64.0761 20.6825C64.0761 21.6338 64.7995 22.265 66.0048 22.265C67.145 22.265 68.1325 21.6813 68.5242 20.4888M71.9423 17.1538V24.625H68.742V23C68.1087 24.1925 66.8797 24.825 65.1513 24.825C62.3903 24.825 60.747 23.1213 60.747 20.8563C60.747 18.545 62.2151 16.9375 65.8084 16.9375H68.5242C68.5242 15.3125 67.6482 14.3588 65.8084 14.3588C64.5568 14.3588 63.2664 14.82 62.4116 15.575L61.1863 12.9225C62.478 11.8988 64.3828 11.3388 66.2677 11.3388C69.8609 11.3388 71.9423 13.19 71.9423 17.1575M85.6544 17.1325V24.6325H82.2364V17.7138C82.2364 15.5963 81.3603 14.6213 79.8484 14.6213C78.2064 14.6213 77.0236 15.7463 77.0236 18.1513V24.625H73.6044V11.5313H76.8697V13.0638C77.7896 11.9388 79.1701 11.3363 80.7696 11.3363C83.5518 11.3363 85.6507 13.1375 85.6507 17.1288" fill="white"/>
    <path fill-rule="evenodd" clip-rule="evenodd" d="M96.573 17.6651C96.573 15.7413 95.2827 14.4513 93.4854 14.4513C91.6882 14.4513 90.3741 15.7413 90.3741 17.6651C90.3741 19.5888 91.6882 20.8751 93.4917 20.8751C95.2952 20.8751 96.573 19.5888 96.573 17.6651ZM99.9524 11.5313V22.4351C99.9524 27.3101 97.587 29.5438 93.3367 29.5438C91.1013 29.5438 88.9336 28.9351 87.5532 27.7426L88.9111 25.0151C89.9199 25.9163 91.5632 26.5013 93.0738 26.5013C95.4843 26.5013 96.5357 25.2838 96.5357 22.9226V22.3626C95.637 23.4576 94.3442 23.9876 92.811 23.9876C89.5469 23.9876 86.9174 21.4813 86.9174 17.6601C86.9174 13.8388 89.5457 11.3301 92.811 11.3301C94.453 11.3301 95.8148 11.9388 96.7096 13.2051V11.5313H99.9524Z" fill="white"/>
    <path fill-rule="evenodd" clip-rule="evenodd" d="M25.7646 22.8376L26.9698 19.8676C28.4167 20.9957 30.1933 21.6199 32.0287 21.6451C34.1325 21.6451 34.9874 20.8663 34.9874 19.8188C34.9874 16.6301 26.07 18.8188 26.07 12.4926C26.07 9.59506 28.1726 7.18506 32.5343 7.18506C34.4617 7.18506 36.4342 7.69631 37.8572 8.69381L36.7621 11.6938C35.3378 10.7938 33.8697 10.3551 32.5068 10.3551C30.4016 10.3551 29.5906 11.2301 29.5906 12.3026C29.5906 15.4426 38.508 13.2763 38.508 19.5326C38.508 22.3788 36.3804 24.8138 31.9999 24.8138C29.5693 24.8138 27.1188 24.0113 25.7571 22.8426" fill="white"/>
    <path d="M16.0312 15.9588L12.473 12.4013L8.84347 8.76885C6.83873 6.76202 6.83873 3.51317 8.84347 1.50635L1.5844 8.7701C-0.422013 10.7772 -0.422013 14.028 1.5844 16.0351L5.13133 19.5913L8.76087 23.2163C10.7671 25.223 10.7671 28.4734 8.76087 30.4801L16.0199 23.2151C18.0262 21.2084 18.0262 17.958 16.0199 15.9513L16.0312 15.9588Z" fill="white"/>
    <path opacity="0.7" d="M8.84226 8.76875L12.4718 12.4012L16.1013 8.77625C17.4027 7.48116 17.9135 5.59103 17.4412 3.81785C16.9689 2.04466 15.5854 0.657818 13.8117 0.179722C12.038 -0.298373 10.1437 0.204914 8.84226 1.5C6.83334 3.50755 6.83334 6.76121 8.84226 8.76875Z" fill="white"/>
    <path opacity="0.7" d="M8.76706 23.2236L5.13752 19.5986L1.50172 23.2236C-0.414448 25.2409 -0.37427 28.4151 1.59235 30.3833C3.55896 32.3515 6.73707 32.3982 8.7608 30.4886C10.7696 28.4835 10.7724 25.2322 8.76706 23.2236Z" fill="white"/>
</svg>
