<svg width="17" height="18" viewBox="0 0 17 18" fill="none" xmlns="http://www.w3.org/2000/svg">
    <path d="M16.8818 9.00045C16.8818 4.56296 13.2845 0.965668 8.84704 0.965668C4.40955 0.965668 0.812256 4.56296 0.812256 9.00045C0.812256 13.0108 3.75046 16.3349 7.5916 16.9376V11.323H5.55152V9.00045H7.5916V7.23029C7.5916 5.21657 8.79114 4.10425 10.6265 4.10425C11.5055 4.10425 12.425 4.26118 12.425 4.26118V6.23849H11.4119C10.4137 6.23849 10.1025 6.85785 10.1025 7.49325V9.00045H12.3309L11.9746 11.323H10.1025V16.9376C13.9436 16.3349 16.8818 13.0108 16.8818 9.00045Z" fill="#1877F2"/>
    <path d="M11.9737 11.3227L12.3299 9.00013H10.1015V7.49293C10.1015 6.85753 10.4128 6.23817 11.4109 6.23817H12.424V4.26086C12.424 4.26086 11.5045 4.10394 10.6255 4.10394C8.79015 4.10394 7.59062 5.21625 7.59062 7.22997V9.00013H5.55054V11.3227H7.59062V16.9373C7.99969 17.0015 8.41895 17.0349 8.84605 17.0349C9.27315 17.0349 9.69242 17.0015 10.1015 16.9373V11.3227H11.9737Z" fill="white"/>
</svg>
