<svg width="15" height="14" viewBox="0 0 15 14" fill="none" xmlns="http://www.w3.org/2000/svg">
    <path d="M12.2033 11.6808H10.19V8.55896C10.19 7.81452 10.1766 6.8562 9.14287 6.8562C8.09427 6.8562 7.93383 7.66729 7.93383 8.50476V11.6806H5.92052V5.26079H7.85329V6.13813H7.88035C8.07378 5.81067 8.35328 5.54128 8.6891 5.35866C9.02492 5.17604 9.40447 5.08703 9.78734 5.1011C11.8279 5.1011 12.2041 6.43009 12.2041 8.15902L12.2033 11.6808ZM3.64884 4.38324C3.41776 4.38328 3.19185 4.31548 2.9997 4.1884C2.80754 4.06132 2.65777 3.88067 2.5693 3.6693C2.48083 3.45793 2.45765 3.22533 2.50269 3.00092C2.54773 2.7765 2.65897 2.57036 2.82234 2.40854C2.9857 2.24672 3.19386 2.13651 3.42049 2.09183C3.64712 2.04715 3.88204 2.07002 4.09554 2.15754C4.30905 2.24506 4.49154 2.3933 4.61996 2.58352C4.74837 2.77374 4.81694 2.99739 4.81698 3.2262C4.81701 3.37811 4.78681 3.52855 4.72812 3.66891C4.66943 3.80928 4.5834 3.93682 4.47493 4.04427C4.36646 4.15171 4.23767 4.23694 4.09593 4.2951C3.95419 4.35327 3.80227 4.38322 3.64884 4.38324ZM4.65549 11.6808H2.64009V5.26079H4.65549V11.6808ZM13.207 0.218324H1.6284C1.3656 0.215387 1.11236 0.315879 0.92435 0.497716C0.736339 0.679552 0.62894 0.927858 0.625732 1.18807V12.7002C0.62883 12.9605 0.736167 13.209 0.924171 13.391C1.11218 13.5731 1.36547 13.6738 1.6284 13.671H13.207C13.4705 13.6743 13.7245 13.5739 13.9132 13.3918C14.102 13.2098 14.21 12.9611 14.2137 12.7002V1.18724C14.2099 0.926511 14.1018 0.677923 13.913 0.496091C13.7243 0.314259 13.4703 0.214054 13.207 0.217493" fill="#0A66C2"/>
</svg>
