<svg width="17" height="14" viewBox="0 0 17 14" fill="none" xmlns="http://www.w3.org/2000/svg">
    <path d="M5.0728 13.4807C11.0967 13.4807 14.391 8.49404 14.391 4.16976C14.391 4.02812 14.3881 3.88712 14.3818 3.74676C15.0212 3.28485 15.577 2.70841 16.0154 2.05221C15.4286 2.31284 14.7971 2.48829 14.1347 2.5674C14.8108 2.16226 15.3299 1.52139 15.5748 0.757394C14.942 1.13222 14.2413 1.40465 13.4952 1.55174C12.8976 0.915664 12.0467 0.517822 11.1046 0.517822C9.29606 0.517822 7.82945 1.98335 7.82945 3.78982C7.82945 4.04662 7.85818 4.2964 7.91437 4.53599C5.19245 4.39914 2.77886 3.09696 1.16355 1.11691C0.882285 1.60052 0.720106 2.16228 0.720106 2.76169C0.720106 3.89703 1.29829 4.89931 2.17751 5.48566C1.6402 5.46908 1.13545 5.32169 0.694288 5.07638C0.693806 5.09011 0.693804 5.1035 0.693804 5.11817C0.693804 6.703 1.82269 8.02621 3.32123 8.32605C3.04604 8.40101 2.75649 8.44121 2.45765 8.44121C2.24695 8.44121 2.04166 8.42049 1.84213 8.38219C2.25908 9.68244 3.46811 10.6286 4.90151 10.6551C3.78061 11.533 2.36858 12.0558 0.833932 12.0558C0.569909 12.0558 0.309081 12.0408 0.0527344 12.0105C1.50216 12.9389 3.22321 13.4805 5.07298 13.4805" fill="#1DA1F2"/>
</svg>
