<svg width="209" height="576" viewBox="0 0 209 576" fill="none" xmlns="http://www.w3.org/2000/svg">
    <g opacity="0.2">
        <path fill-rule="evenodd" clip-rule="evenodd" d="M36.0001 82V86.885L40.8851 82H36.0001Z" fill="white"/>
        <path fill-rule="evenodd" clip-rule="evenodd" d="M46.54 82L36 92.5405V98.2L52.2 82H46.54Z" fill="white"/>
        <path fill-rule="evenodd" clip-rule="evenodd" d="M57.8547 82L36.0002 103.86V109.51L63.5152 82H57.8547Z" fill="white"/>
        <path fill-rule="evenodd" clip-rule="evenodd" d="M69.17 82L36 115.17V118H38.83L72 84.825V82H69.17Z" fill="white"/>
        <path fill-rule="evenodd" clip-rule="evenodd" d="M44.4799 118H50.1399L71.9999 96.1401V90.4851L44.4799 118Z" fill="white"/>
        <path fill-rule="evenodd" clip-rule="evenodd" d="M55.8 118H61.45L72 107.455V101.795L55.8 118Z" fill="white"/>
        <path fill-rule="evenodd" clip-rule="evenodd" d="M67.11 118H72V113.11L67.11 118Z" fill="white"/>
    </g>
    <g opacity="0.2">
        <path fill-rule="evenodd" clip-rule="evenodd" d="M0 504V508.885L4.885 504H0Z" fill="white"/>
        <path fill-rule="evenodd" clip-rule="evenodd" d="M10.54 504L0 514.54V520.2L16.2 504H10.54Z" fill="white"/>
        <path fill-rule="evenodd" clip-rule="evenodd" d="M21.8547 504L0.000244141 525.86V531.51L27.5152 504H21.8547Z" fill="white"/>
        <path fill-rule="evenodd" clip-rule="evenodd" d="M33.17 504L0 537.17V540H2.83L36 506.825V504H33.17Z" fill="white"/>
        <path fill-rule="evenodd" clip-rule="evenodd" d="M8.47998 540H14.14L36 518.14V512.485L8.47998 540Z" fill="white"/>
        <path fill-rule="evenodd" clip-rule="evenodd" d="M19.8 540H25.45L36 529.455V523.795L19.8 540Z" fill="white"/>
        <path fill-rule="evenodd" clip-rule="evenodd" d="M31.1099 540H35.9999V535.11L31.1099 540Z" fill="white"/>
    </g>
    <path opacity="0.2" fill-rule="evenodd" clip-rule="evenodd" d="M0 236H36V200H0V236Z" fill="white"/>
    <path fill-rule="evenodd" clip-rule="evenodd" d="M36 82H0V46C19.88 46 36 62.12 36 82Z" fill="white"/>
    <path fill-rule="evenodd" clip-rule="evenodd" d="M72 421H36V385C55.88 385 72 401.12 72 421Z" fill="white"/>
    <path fill-rule="evenodd" clip-rule="evenodd" d="M90 319L90 323L54 323L54 319L90 319Z" fill="white"/>
    <path fill-rule="evenodd" clip-rule="evenodd" d="M90 311L90 315L54 315L54 311L90 311Z" fill="white"/>
    <path fill-rule="evenodd" clip-rule="evenodd" d="M90 303L90 307L54 307L54 303L90 303Z" fill="white"/>
    <path fill-rule="evenodd" clip-rule="evenodd" d="M90 295L90 299L54 299L54 295L90 295Z" fill="white"/>
    <path fill-rule="evenodd" clip-rule="evenodd" d="M90 287L90 291L54 291L54 287L90 287Z" fill="white"/>
    <rect width="36" height="36" transform="translate(36 164)" fill="#143FE4"/>
    <path opacity="0.2" fill-rule="evenodd" clip-rule="evenodd" d="M36 200H72V164H36V200Z" fill="white"/>
    <g opacity="0.2">
        <path fill-rule="evenodd" clip-rule="evenodd" d="M122 287H126V251H122V287Z" fill="white"/>
        <path fill-rule="evenodd" clip-rule="evenodd" d="M114 287H118V251H114V287Z" fill="white"/>
        <path fill-rule="evenodd" clip-rule="evenodd" d="M106 287H110V251H106V287Z" fill="white"/>
        <path fill-rule="evenodd" clip-rule="evenodd" d="M98 287H102V251H98V287Z" fill="white"/>
        <path fill-rule="evenodd" clip-rule="evenodd" d="M90 287H94V251H90V287Z" fill="white"/>
    </g>
    <g opacity="0.2">
        <path fill-rule="evenodd" clip-rule="evenodd" d="M68 576H72V540H68V576Z" fill="white"/>
        <path fill-rule="evenodd" clip-rule="evenodd" d="M60 576H64V540H60V576Z" fill="white"/>
        <path fill-rule="evenodd" clip-rule="evenodd" d="M52 576H56V540H52V576Z" fill="white"/>
        <path fill-rule="evenodd" clip-rule="evenodd" d="M44 576H48V540H44V576Z" fill="white"/>
        <path fill-rule="evenodd" clip-rule="evenodd" d="M36 576H40V540H36V576Z" fill="white"/>
    </g>
    <g opacity="0.2">
        <path fill-rule="evenodd" clip-rule="evenodd" d="M32 457H36V421H32V457Z" fill="white"/>
        <path fill-rule="evenodd" clip-rule="evenodd" d="M24 457H28V421H24V457Z" fill="white"/>
        <path fill-rule="evenodd" clip-rule="evenodd" d="M16 457H20V421H16V457Z" fill="white"/>
        <path fill-rule="evenodd" clip-rule="evenodd" d="M8 457H12V421H8V457Z" fill="white"/>
        <path fill-rule="evenodd" clip-rule="evenodd" d="M0 457H4V421H0V457Z" fill="white"/>
    </g>
    <g opacity="0.2">
        <path fill-rule="evenodd" clip-rule="evenodd" d="M138 36H142V0H138V36Z" fill="white"/>
        <path fill-rule="evenodd" clip-rule="evenodd" d="M130 36H134V0H130V36Z" fill="white"/>
        <path fill-rule="evenodd" clip-rule="evenodd" d="M122 36H126V0H122V36Z" fill="white"/>
        <path fill-rule="evenodd" clip-rule="evenodd" d="M114 36H118V0H114V36Z" fill="white"/>
        <path fill-rule="evenodd" clip-rule="evenodd" d="M106 36H110V0H106V36Z" fill="white"/>
    </g>
    <rect width="31.1763" height="31.1763" transform="matrix(0.439557 0.898215 -0.558045 0.829811 186.199 92.0679)" fill="#6E6E6E"/>
    <rect width="31.1763" height="31.1763" transform="matrix(0.99766 0.068376 -0.558098 0.829775 155.096 89.9363)" fill="#5A5A5A"/>
    <rect width="31.1763" height="31.1763" transform="matrix(0.439615 0.898187 -0.997655 -0.0684395 168.802 117.936)" fill="#AAAAAA"/>
    <rect width="31.1763" height="31.1763" transform="matrix(0.439557 0.898215 -0.558045 0.829811 155.098 89.9314)" fill="#FFDB00"/>
    <rect width="31.1763" height="31.1763" transform="matrix(0.99766 0.068376 -0.558098 0.829775 168.803 117.935)" fill="#FFF6BE"/>
    <rect width="31.1763" height="31.1763" transform="matrix(0.997655 0.0684395 0.439615 0.898187 155.096 89.9343)" fill="#FFEF8E"/>
    <rect width="23.9141" height="23.9141" transform="matrix(0.866041 -0.499972 0.866041 0.499972 104.355 366.83)" fill="#6E6E6E"/>
    <rect width="23.9141" height="23.9141" transform="matrix(-3.18529e-05 -1 0.866009 0.500028 104.356 390.743)" fill="#5A5A5A"/>
    <rect width="23.9141" height="23.9141" transform="matrix(0.866009 -0.500028 -3.18093e-05 1 125.064 378.786)" fill="#AAAAAA"/>
    <rect width="23.9141" height="23.9141" transform="matrix(0.866041 -0.499972 0.866041 0.499972 104.352 390.742)" fill="#00D9FF"/>
    <rect width="23.9141" height="23.9141" transform="matrix(-3.18529e-05 -1 0.866009 0.500028 125.064 378.785)" fill="#BEF5FF"/>
    <rect width="23.9141" height="23.9141" transform="matrix(3.18093e-05 -1 0.866009 -0.500028 104.354 390.744)" fill="#8EEEFF"/>
</svg>
