<svg width="170" height="530" viewBox="0 0 170 530" fill="none" xmlns="http://www.w3.org/2000/svg">
<g opacity="0.2">
<path fill-rule="evenodd" clip-rule="evenodd" d="M134 494V489.115L129.115 494H134Z" fill="white"/>
<path fill-rule="evenodd" clip-rule="evenodd" d="M123.46 494L134 483.46V477.8L117.8 494H123.46Z" fill="white"/>
<path fill-rule="evenodd" clip-rule="evenodd" d="M112.145 494L134 472.14V466.49L106.485 494H112.145Z" fill="white"/>
<path fill-rule="evenodd" clip-rule="evenodd" d="M100.83 494L134 460.83V458H131.17L97.9999 491.175V494H100.83Z" fill="white"/>
<path fill-rule="evenodd" clip-rule="evenodd" d="M125.52 458H119.86L98.0001 479.86V485.515L125.52 458Z" fill="white"/>
<path fill-rule="evenodd" clip-rule="evenodd" d="M114.2 458H108.55L97.9999 468.545V474.205L114.2 458Z" fill="white"/>
<path fill-rule="evenodd" clip-rule="evenodd" d="M102.89 458H98.0001V462.89L102.89 458Z" fill="white"/>
</g>
<g opacity="0.2">
<path fill-rule="evenodd" clip-rule="evenodd" d="M170 72V67.115L165.115 72H170Z" fill="white"/>
<path fill-rule="evenodd" clip-rule="evenodd" d="M159.46 72L170 61.4595V55.8L153.8 72H159.46Z" fill="white"/>
<path fill-rule="evenodd" clip-rule="evenodd" d="M148.145 72L170 50.14V44.4895L142.485 72H148.145Z" fill="white"/>
<path fill-rule="evenodd" clip-rule="evenodd" d="M136.83 72L170 38.83V36H167.17L134 69.175V72H136.83Z" fill="white"/>
<path fill-rule="evenodd" clip-rule="evenodd" d="M161.52 35.9999H155.86L134 57.8599V63.5149L161.52 35.9999Z" fill="white"/>
<path fill-rule="evenodd" clip-rule="evenodd" d="M150.2 36.0001H144.55L134 46.5451V52.2051L150.2 36.0001Z" fill="white"/>
<path fill-rule="evenodd" clip-rule="evenodd" d="M138.89 35.9999H134V40.8899L138.89 35.9999Z" fill="white"/>
</g>
<path opacity="0.2" fill-rule="evenodd" clip-rule="evenodd" d="M170 340H134V376H170V340Z" fill="white"/>
<path fill-rule="evenodd" clip-rule="evenodd" d="M134 494H170V530C150.12 530 134 513.88 134 494Z" fill="white"/>
<path fill-rule="evenodd" clip-rule="evenodd" d="M98 155H134V191C114.12 191 98 174.88 98 155Z" fill="white"/>
<path fill-rule="evenodd" clip-rule="evenodd" d="M80 257L80 253L116 253L116 257L80 257Z" fill="white"/>
<path fill-rule="evenodd" clip-rule="evenodd" d="M80 265L80 261L116 261L116 265L80 265Z" fill="white"/>
<path fill-rule="evenodd" clip-rule="evenodd" d="M80 273L80 269L116 269L116 273L80 273Z" fill="white"/>
<path fill-rule="evenodd" clip-rule="evenodd" d="M80 281L80 277L116 277L116 281L80 281Z" fill="white"/>
<path fill-rule="evenodd" clip-rule="evenodd" d="M80 289L80 285L116 285L116 289L80 289Z" fill="white"/>
<rect width="36" height="36" transform="translate(134 412) rotate(-180)" fill="#143FE4"/>
<path opacity="0.2" fill-rule="evenodd" clip-rule="evenodd" d="M134 376H98V412H134V376Z" fill="white"/>
<rect width="36" height="36" transform="translate(0 217) rotate(-90)" fill="#143FE4"/>
<path opacity="0.2" fill-rule="evenodd" clip-rule="evenodd" d="M36 217L36 181L1.57361e-06 181L0 217L36 217Z" fill="white"/>
<g opacity="0.2">
<path fill-rule="evenodd" clip-rule="evenodd" d="M48 289H44V325H48V289Z" fill="white"/>
<path fill-rule="evenodd" clip-rule="evenodd" d="M56 289H52V325H56V289Z" fill="white"/>
<path fill-rule="evenodd" clip-rule="evenodd" d="M64 289H60V325H64V289Z" fill="white"/>
<path fill-rule="evenodd" clip-rule="evenodd" d="M72 289H68V325H72V289Z" fill="white"/>
<path fill-rule="evenodd" clip-rule="evenodd" d="M80 289H76V325H80V289Z" fill="white"/>
</g>
<g opacity="0.2">
<path fill-rule="evenodd" clip-rule="evenodd" d="M102 0H98V36H102V0Z" fill="white"/>
<path fill-rule="evenodd" clip-rule="evenodd" d="M110 0H106V36H110V0Z" fill="white"/>
<path fill-rule="evenodd" clip-rule="evenodd" d="M118 0H114V36H118V0Z" fill="white"/>
<path fill-rule="evenodd" clip-rule="evenodd" d="M126 0H122V36H126V0Z" fill="white"/>
<path fill-rule="evenodd" clip-rule="evenodd" d="M134 0H130V36H134V0Z" fill="white"/>
</g>
<g opacity="0.2">
<path fill-rule="evenodd" clip-rule="evenodd" d="M72 149L72 145L36 145L36 149L72 149Z" fill="white"/>
<path fill-rule="evenodd" clip-rule="evenodd" d="M72 157L72 153L36 153L36 157L72 157Z" fill="white"/>
<path fill-rule="evenodd" clip-rule="evenodd" d="M72 165L72 161L36 161L36 165L72 165Z" fill="white"/>
<path fill-rule="evenodd" clip-rule="evenodd" d="M72 173L72 169L36 169L36 173L72 173Z" fill="white"/>
<path fill-rule="evenodd" clip-rule="evenodd" d="M72 181L72 177L36 177L36 181L72 181Z" fill="white"/>
</g>
<g opacity="0.2">
<path fill-rule="evenodd" clip-rule="evenodd" d="M138 119H134V155H138V119Z" fill="white"/>
<path fill-rule="evenodd" clip-rule="evenodd" d="M146 119H142V155H146V119Z" fill="white"/>
<path fill-rule="evenodd" clip-rule="evenodd" d="M154 119H150V155H154V119Z" fill="white"/>
<path fill-rule="evenodd" clip-rule="evenodd" d="M162 119H158V155H162V119Z" fill="white"/>
<path fill-rule="evenodd" clip-rule="evenodd" d="M170 119H166V155H170V119Z" fill="white"/>
</g>
</svg>
