<svg width="14" height="14" viewBox="0 0 14 14" fill="none" xmlns="http://www.w3.org/2000/svg">
    <path fill-rule="evenodd" clip-rule="evenodd" d="M4.28571 0H9.71429C12.0783 0.00706029 13.9929 1.92171 14 4.28571V9.71429C13.9929 12.0783 12.0783 13.9929 9.71429 14H4.28571C1.92171 13.9929 0.00706029 12.0783 0 9.71429V4.28571C0.00706029 1.92171 1.92171 0.00706029 4.28571 0ZM12.8571 4.28571C12.8571 2.54996 11.45 1.14286 9.71428 1.14286H4.28571C2.54996 1.14286 1.14285 2.54996 1.14285 4.28571V9.71429C1.14285 11.45 2.54996 12.8571 4.28571 12.8571H9.71428C11.45 12.8571 12.8571 11.45 12.8571 9.71429V4.28571Z" fill="#8B8E99"/>
    <path d="M10.7343 2.42859C10.2822 2.42859 9.91571 2.79508 9.91571 3.24716C9.91571 3.69924 10.2822 4.06573 10.7343 4.06573C11.1864 4.06573 11.5529 3.69924 11.5529 3.24716C11.5529 3.03006 11.4666 2.82185 11.3131 2.66834C11.1596 2.51483 10.9514 2.42859 10.7343 2.42859Z" fill="#8B8E99"/>
    <path fill-rule="evenodd" clip-rule="evenodd" d="M3.37714 7.02659C3.37425 5.00124 5.01322 3.35673 7.03857 3.35279C8.01252 3.35089 8.94726 3.73637 9.63675 4.42426C10.3262 5.11214 10.7139 6.04598 10.7143 7.01993C10.7151 9.04528 9.07439 10.6881 7.04904 10.6899C5.02369 10.6918 3.38003 9.05194 3.37714 7.02659ZM9.37318 6.05415C8.98188 5.11023 8.06038 4.49507 7.03857 4.49565C5.64542 4.49801 4.51664 5.62679 4.51428 7.01993C4.5137 8.04175 5.12886 8.96324 6.07279 9.35454C7.01671 9.74584 8.10341 9.52984 8.82595 8.80731C9.54848 8.08478 9.76448 6.99808 9.37318 6.05415Z" fill="#8B8E99"/>
</svg>
