<svg width="14" height="14" viewBox="0 0 14 14" fill="none" xmlns="http://www.w3.org/2000/svg">
    <path fill-rule="evenodd" clip-rule="evenodd" d="M2.42971 0H11.5703C12.9122 0 14 1.0878 14 2.42971V11.5703C14 12.9122 12.9122 14 11.5703 14H2.42971C1.0878 14 0 12.9122 0 11.5703V2.42971C0 1.0878 1.0878 0 2.42971 0ZM10.4405 9.62314C10.5983 9.49689 10.7189 9.38591 10.8183 9.28234C11.7201 8.49029 12.2738 7.41797 12.2738 6.23743C12.2738 3.79949 9.91266 1.82314 7 1.82314C4.08734 1.82314 1.72617 3.79949 1.72617 6.23743C1.72617 8.46103 3.69051 10.3003 6.24586 10.6066C6.27226 10.6133 6.29906 10.619 6.32617 10.6231C6.69437 10.6798 6.75474 10.8231 6.66903 11.1946C6.63754 11.331 6.5945 11.4636 6.55546 11.5838C6.48822 11.7909 6.43287 11.9613 6.46903 12.0517C6.52617 12.1946 6.72617 12.2803 7.26903 11.9374C7.81188 11.5946 10.0457 9.93891 10.4405 9.62314Z" fill="#8B8E99"/>
    <path d="M4.74287 7.87063H3.95736V5.97097C3.95736 5.86297 3.93273 5.78251 3.88347 5.72971C3.83419 5.67691 3.76979 5.65051 3.6903 5.65051C3.61196 5.65051 3.54876 5.67723 3.50067 5.73063C3.45259 5.78406 3.42859 5.86417 3.42859 5.971V7.98106C3.42859 8.095 3.45379 8.17754 3.50425 8.22854C3.55467 8.2796 3.63745 8.30511 3.75259 8.30511H4.74287C4.8295 8.30511 4.89539 8.28525 4.9405 8.24545C4.98559 8.20571 5.00816 8.15377 5.00816 8.08965C5.00816 8.02677 4.98527 7.97454 4.93962 7.93303C4.8939 7.89137 4.82833 7.87063 4.74287 7.87063Z" fill="#8B8E99"/>
    <path d="M5.57598 5.65051C5.49881 5.65051 5.43593 5.67723 5.38727 5.73063C5.33861 5.78406 5.31427 5.86417 5.31427 5.971V8.02737C5.31427 8.13417 5.3389 8.2146 5.38816 8.2686C5.43741 8.32257 5.50001 8.34957 5.57598 8.34957C5.6555 8.34957 5.7199 8.32288 5.76918 8.26948C5.81841 8.21608 5.84307 8.13534 5.84307 8.02734V5.97097C5.84307 5.86297 5.81841 5.78251 5.76918 5.72971C5.7199 5.67691 5.6555 5.65051 5.57598 5.65051Z" fill="#8B8E99"/>
    <path d="M8.2522 5.65045C8.1786 5.65045 8.12014 5.67568 8.07683 5.7261C8.03349 5.77656 8.01186 5.85222 8.01186 5.95308V7.50562L7 5.96733C6.97152 5.92225 6.94392 5.8789 6.91723 5.83736C6.89049 5.79582 6.86437 5.76196 6.83889 5.73585C6.81334 5.70979 6.78369 5.68896 6.74989 5.67353C6.71603 5.65813 6.6754 5.65039 6.62792 5.65039C6.56737 5.65039 6.51097 5.6673 6.45877 5.7011C6.40652 5.73493 6.36912 5.77856 6.3466 5.83196C6.3276 5.88065 6.31812 5.9477 6.31812 6.03313V8.04682C6.31812 8.1453 6.34063 8.22036 6.38577 8.27205C6.43086 8.32368 6.4908 8.34945 6.56557 8.34945C6.63797 8.34945 6.69732 8.32393 6.7436 8.27288C6.78989 8.22188 6.81306 8.14648 6.81306 8.04682V6.51745L7.8 8.03793C7.82849 8.0795 7.85697 8.12013 7.88543 8.15993C7.91392 8.19968 7.94477 8.23442 7.97803 8.26408C8.01123 8.29376 8.04683 8.31542 8.08483 8.32902C8.1228 8.34271 8.16552 8.3495 8.213 8.3495C8.40289 8.3495 8.49789 8.23499 8.49789 8.00593V5.9531C8.49789 5.85225 8.47589 5.77656 8.432 5.72613C8.38812 5.67565 8.32814 5.65045 8.2522 5.65045Z" fill="#8B8E99"/>
    <path d="M10.3204 7.8537H9.38589V7.1113H10.1851C10.267 7.1113 10.3275 7.09262 10.3667 7.05522C10.4058 7.01782 10.4254 6.9695 10.4254 6.91013C10.4254 6.85076 10.4055 6.80299 10.3658 6.76676C10.326 6.73059 10.2658 6.71248 10.1851 6.71248H9.38589V6.07153H10.2794C10.3637 6.07153 10.4263 6.05285 10.4672 6.01545C10.5082 5.97805 10.5287 5.9285 10.5287 5.86679C10.5287 5.80625 10.5082 5.7573 10.4672 5.7199C10.4263 5.6825 10.3637 5.66382 10.2794 5.66382H9.18115C9.10637 5.66382 9.04492 5.67482 8.99689 5.69673C8.9488 5.71873 8.91346 5.7537 8.89095 5.80179C8.86837 5.84988 8.85712 5.9119 8.85712 5.98785V7.94985C8.85712 8.06379 8.88232 8.14633 8.93275 8.19733C8.9832 8.24839 9.06597 8.2739 9.18112 8.2739H10.3203C10.4034 8.2739 10.466 8.25459 10.5082 8.21605C10.5503 8.17748 10.5714 8.12733 10.5714 8.06559C10.5714 8.00148 10.5503 7.95019 10.5082 7.91156C10.4661 7.87302 10.4034 7.8537 10.3204 7.8537Z" fill="#8B8E99"/>
</svg>
