<svg width="16" height="12" viewBox="0 0 16 12" fill="none" xmlns="http://www.w3.org/2000/svg">
    <path fill-rule="evenodd" clip-rule="evenodd" d="M15.0296 9.62836C14.8579 10.275 14.3519 10.7631 13.7094 10.9359C12.6859 11.212 8.95557 11.2454 8.06627 11.2495H7.68373C6.79444 11.2454 3.06408 11.212 2.04065 10.9359C1.39815 10.7631 0.892136 10.275 0.720383 9.62836C0.44434 8.59146 0.412489 6.55805 0.408813 6.1026V5.91868C0.412489 5.46324 0.44434 3.42984 0.720383 2.39294C0.892136 1.74625 1.39815 1.23698 2.04065 1.06413C3.06408 0.788121 6.79444 0.754666 7.68373 0.75061H8.06627C8.95557 0.754666 12.686 0.788121 13.7094 1.06413C14.3519 1.23695 14.8579 1.74625 15.0296 2.39294C15.3057 3.42984 15.3375 5.46324 15.3412 5.91868V6.1026C15.3375 6.55805 15.3057 8.59146 15.0296 9.62836ZM6.34771 3.79025V8.23103L10.2507 6.01069L6.34771 3.79025Z" fill="#A7ACC0"/>
</svg>
